# xmcd
#
# Track frame offsets:
#	182
#	18030
#	46432
#	80077
#	110365
#	134380
#	160075
#	185950
#	211145
#	297995
#
# Disc length: 4607 seconds
#
# Revision: 0
# Processed by: cddbd v1.4PL0 Copyright (c) Steve Scherf et al.
# Submitted via: dBpowerAMP V4.0
#
DISCID=8b11fd0a
DTITLE=John Mayall an the Bluesbrakers - Mayallapolis Blues
DYEAR=1993
DGENRE=Blues
TTITLE0=01 - I wanna Go
TTITLE1=02 - Congo Square
TTITLE2=03 - All My Life
TTITLE3=04 - The Last Time
TTITLE4=05 - Jacksboro Highway
TTITLE5=06 - Sensitive Kind
TTITLE6=07 - I Cant't Complain
TTITLE7=Black Cat Moan
TTITLE8=Coco' sBlues
TTITLE9=Roam to Move
EXTD=
EXTT0=
EXTT1=
EXTT2=
EXTT3=
EXTT4=
EXTT5=
EXTT6=
EXTT7=
EXTT8=
EXTT9=
PLAYORDER=
